<?xml version="1.0" standalone="no"?>
<!DOCTYPE svg PUBLIC "-//W3C//DTD SVG 20010904//EN"
 "http://www.w3.org/TR/2001/REC-SVG-20010904/DTD/svg10.dtd">
<svg version="1.0" xmlns="http://www.w3.org/2000/svg"
 width="281.000000pt" height="281.000000pt" viewBox="0 0 281.000000 281.000000"
 preserveAspectRatio="xMidYMid meet">
<metadata>
Created by potrace 1.14, written by Peter Selinger 2001-2017
</metadata>
<g transform="translate(0.000000,281.000000) scale(0.100000,-0.100000)"
fill="#000000" stroke="none">
<path d="M1490 2538 c-26 -18 -44 -44 -70 -103 -34 -79 -35 -82 -36 -222 0
-79 -3 -146 -7 -150 -4 -3 -35 -1 -70 6 -34 7 -71 14 -82 16 -11 1 -48 10 -81
19 -72 19 -192 21 -318 5 -103 -13 -241 -61 -331 -117 -215 -133 -405 -472
-405 -721 1 -140 25 -284 70 -410 55 -157 76 -189 204 -316 119 -117 221 -187
330 -226 85 -29 242 -30 412 -2 122 20 156 21 494 16 404 -6 467 0 627 59 143
53 259 172 339 348 90 198 123 361 124 595 0 98 -10 135 -67 249 -74 151 -195
284 -340 376 -105 66 -158 86 -267 100 -87 12 -353 9 -392 -4 -19 -7 -23 -1
-39 57 -26 96 -18 222 19 302 15 33 36 70 47 82 12 11 19 29 17 40 -3 15 -15
18 -74 21 -59 2 -75 -1 -104 -20z m-410 -468 c47 -5 108 -15 135 -23 l50 -14
-135 -66 c-263 -126 -359 -243 -471 -567 -42 -123 -43 -128 -47 -279 -4 -162
3 -205 60 -376 26 -78 152 -338 172 -355 9 -7 16 -19 16 -26 0 -20 -95 -9
-190 22 -107 35 -183 85 -274 178 -115 117 -150 166 -181 248 -15 40 -36 95
-47 122 -11 27 -26 103 -34 169 -12 103 -12 136 0 231 16 126 22 143 93 282
74 145 185 273 303 350 93 60 191 91 330 104 104 10 124 10 220 0z m947 -49
c118 -17 296 -121 397 -233 86 -94 163 -218 192 -305 21 -65 25 -93 23 -187
-2 -199 -14 -281 -58 -398 -80 -215 -157 -332 -265 -402 -52 -33 -114 -62
-120 -55 -2 2 19 64 45 137 27 74 56 169 65 213 20 99 15 245 -15 423 -42 256
-47 265 -298 577 -47 59 -136 143 -220 211 -29 22 -31 27 -16 32 23 6 190 -1
270 -13z m-193 -123 c147 -130 307 -339 365 -476 34 -82 74 -387 68 -527 -4
-96 -9 -122 -40 -205 -84 -223 -105 -263 -146 -284 -32 -16 -428 -31 -555 -20
l-85 7 -65 131 c-127 257 -179 544 -147 821 20 168 144 473 231 568 43 47 56
54 136 78 l89 27 39 -29 c22 -16 71 -57 110 -91z m-420 91 c27 -5 51 -9 54 -9
2 0 -14 -20 -36 -44 -50 -54 -137 -225 -197 -386 -90 -241 -89 -483 0 -820 20
-74 80 -213 142 -331 2 -3 -63 -11 -144 -18 -81 -6 -170 -16 -196 -21 -89 -18
-98 -15 -137 43 -87 131 -173 323 -220 489 -31 106 -32 118 -27 242 4 118 8
142 41 241 100 295 190 404 440 538 132 70 196 97 216 90 8 -2 37 -9 64 -14z"/>
</g>
</svg>
